<mxfile host="app.diagrams.net" modified="2024-03-13T14:50:18.447Z" agent="Mozilla/5.0 (Windows NT 10.0; Win64; x64) AppleWebKit/537.36 (KHTML, like Gecko) Chrome/121.0.0.0 Safari/537.36 OPR/107.0.0.0" etag="n6Zfw3BwfsqkSOX71TIN" version="24.0.2" type="google">
  <diagram name="Página-1" id="_7NwTXzHtlx1tTaq_Yt6">
    <mxGraphModel grid="1" page="1" gridSize="10" guides="1" tooltips="1" connect="1" arrows="1" fold="1" pageScale="1" pageWidth="827" pageHeight="1169" math="0" shadow="0">
      <root>
        <mxCell id="0" />
        <mxCell id="1" parent="0" />
        <mxCell id="18t634J7JC0i_9vnJ3S--81" value="Cliente" style="shape=umlActor;verticalLabelPosition=bottom;verticalAlign=top;html=1;outlineConnect=0;fontSize=16;fontStyle=1" vertex="1" parent="1">
          <mxGeometry x="50" y="524" width="30" height="60" as="geometry" />
        </mxCell>
        <mxCell id="18t634J7JC0i_9vnJ3S--82" value="&lt;h1 style=&quot;line-height: 100%;&quot;&gt;&lt;br&gt;&lt;/h1&gt;" style="rounded=1;whiteSpace=wrap;html=1;arcSize=8;rotation=0;" vertex="1" parent="1">
          <mxGeometry x="140" y="170" width="530" height="860" as="geometry" />
        </mxCell>
        <mxCell id="18t634J7JC0i_9vnJ3S--85" value="Worker" style="shape=umlActor;verticalLabelPosition=bottom;verticalAlign=top;html=1;outlineConnect=0;fontSize=16;fontStyle=1" vertex="1" parent="1">
          <mxGeometry x="740" y="524" width="30" height="60" as="geometry" />
        </mxCell>
        <mxCell id="18t634J7JC0i_9vnJ3S--86" value="&lt;b&gt;&lt;font style=&quot;font-size: 17px;&quot;&gt;WorkAround&lt;/font&gt;&lt;/b&gt;" style="text;html=1;align=center;verticalAlign=middle;resizable=0;points=[];autosize=1;strokeColor=none;fillColor=none;" vertex="1" parent="1">
          <mxGeometry x="340" y="180" width="130" height="30" as="geometry" />
        </mxCell>
        <mxCell id="18t634J7JC0i_9vnJ3S--87" value="&lt;font style=&quot;font-size: 15px;&quot;&gt;UC-01 Realizar cadastro&lt;/font&gt;" style="ellipse;whiteSpace=wrap;html=1;" vertex="1" parent="1">
          <mxGeometry x="220" y="250" width="140" height="80" as="geometry" />
        </mxCell>
        <mxCell id="18t634J7JC0i_9vnJ3S--88" value="&lt;div&gt;&lt;span style=&quot;font-size: 15px;&quot;&gt;UC-02 Logar&lt;/span&gt;&lt;/div&gt;" style="ellipse;whiteSpace=wrap;html=1;" vertex="1" parent="1">
          <mxGeometry x="460" y="320" width="140" height="80" as="geometry" />
        </mxCell>
        <mxCell id="18t634J7JC0i_9vnJ3S--89" value="&lt;span style=&quot;font-size: 15px;&quot;&gt;UC-03 Procurar serviço&lt;/span&gt;" style="ellipse;whiteSpace=wrap;html=1;" vertex="1" parent="1">
          <mxGeometry x="220" y="410" width="140" height="80" as="geometry" />
        </mxCell>
        <mxCell id="18t634J7JC0i_9vnJ3S--91" value="" style="endArrow=none;html=1;rounded=0;entryX=0;entryY=0.5;entryDx=0;entryDy=0;exitX=0.5;exitY=0.5;exitDx=0;exitDy=0;exitPerimeter=0;" edge="1" parent="1" source="18t634J7JC0i_9vnJ3S--81" target="18t634J7JC0i_9vnJ3S--87">
          <mxGeometry width="50" height="50" relative="1" as="geometry">
            <mxPoint x="80" y="490" as="sourcePoint" />
            <mxPoint x="130" y="440" as="targetPoint" />
          </mxGeometry>
        </mxCell>
        <mxCell id="18t634J7JC0i_9vnJ3S--93" value="" style="endArrow=none;html=1;rounded=0;entryX=0;entryY=0.5;entryDx=0;entryDy=0;exitX=0.5;exitY=0.5;exitDx=0;exitDy=0;exitPerimeter=0;" edge="1" parent="1" source="18t634J7JC0i_9vnJ3S--81" target="18t634J7JC0i_9vnJ3S--88">
          <mxGeometry width="50" height="50" relative="1" as="geometry">
            <mxPoint x="75" y="564" as="sourcePoint" />
            <mxPoint x="230" y="300" as="targetPoint" />
            <Array as="points">
              <mxPoint x="230" y="360" />
            </Array>
          </mxGeometry>
        </mxCell>
        <mxCell id="18t634J7JC0i_9vnJ3S--94" value="" style="endArrow=none;html=1;rounded=0;entryX=0;entryY=0.5;entryDx=0;entryDy=0;exitX=0.5;exitY=0.5;exitDx=0;exitDy=0;exitPerimeter=0;" edge="1" parent="1" source="18t634J7JC0i_9vnJ3S--81" target="18t634J7JC0i_9vnJ3S--89">
          <mxGeometry width="50" height="50" relative="1" as="geometry">
            <mxPoint x="20" y="774" as="sourcePoint" />
            <mxPoint x="175" y="510" as="targetPoint" />
          </mxGeometry>
        </mxCell>
        <mxCell id="18t634J7JC0i_9vnJ3S--97" value="&lt;span style=&quot;font-size: 15px;&quot;&gt;UC-04 Agendar serviço&amp;nbsp;&lt;/span&gt;" style="ellipse;whiteSpace=wrap;html=1;" vertex="1" parent="1">
          <mxGeometry x="220" y="524" width="140" height="80" as="geometry" />
        </mxCell>
        <mxCell id="18t634J7JC0i_9vnJ3S--101" value="" style="endArrow=none;dashed=1;html=1;dashPattern=1 3;strokeWidth=2;rounded=0;exitX=1;exitY=0.5;exitDx=0;exitDy=0;entryX=0.5;entryY=0;entryDx=0;entryDy=0;" edge="1" parent="1" source="18t634J7JC0i_9vnJ3S--87" target="18t634J7JC0i_9vnJ3S--88">
          <mxGeometry width="50" height="50" relative="1" as="geometry">
            <mxPoint x="380" y="290" as="sourcePoint" />
            <mxPoint x="430" y="240" as="targetPoint" />
            <Array as="points">
              <mxPoint x="530" y="290" />
            </Array>
          </mxGeometry>
        </mxCell>
        <mxCell id="18t634J7JC0i_9vnJ3S--102" value="Extend" style="edgeLabel;html=1;align=center;verticalAlign=middle;resizable=0;points=[];fontSize=14;" connectable="0" vertex="1" parent="18t634J7JC0i_9vnJ3S--101">
          <mxGeometry x="0.1812" y="1" relative="1" as="geometry">
            <mxPoint y="-9" as="offset" />
          </mxGeometry>
        </mxCell>
        <mxCell id="18t634J7JC0i_9vnJ3S--103" value="&amp;lt;" style="edgeLabel;html=1;align=center;verticalAlign=middle;resizable=0;points=[];fontSize=29;" connectable="0" vertex="1" parent="18t634J7JC0i_9vnJ3S--101">
          <mxGeometry x="-0.3953" y="-2" relative="1" as="geometry">
            <mxPoint x="-50" y="-2" as="offset" />
          </mxGeometry>
        </mxCell>
        <mxCell id="18t634J7JC0i_9vnJ3S--104" value="" style="endArrow=none;dashed=1;html=1;dashPattern=1 3;strokeWidth=2;rounded=0;entryX=0.5;entryY=1;entryDx=0;entryDy=0;exitX=0.5;exitY=0;exitDx=0;exitDy=0;" edge="1" parent="1" source="18t634J7JC0i_9vnJ3S--97" target="18t634J7JC0i_9vnJ3S--89">
          <mxGeometry width="50" height="50" relative="1" as="geometry">
            <mxPoint x="270" y="610" as="sourcePoint" />
            <mxPoint x="320" y="560" as="targetPoint" />
          </mxGeometry>
        </mxCell>
        <mxCell id="18t634J7JC0i_9vnJ3S--105" value="" style="endArrow=none;dashed=1;html=1;dashPattern=1 3;strokeWidth=2;rounded=0;entryX=0.5;entryY=1;entryDx=0;entryDy=0;exitX=1;exitY=0.5;exitDx=0;exitDy=0;" edge="1" parent="1" source="18t634J7JC0i_9vnJ3S--89" target="18t634J7JC0i_9vnJ3S--88">
          <mxGeometry width="50" height="50" relative="1" as="geometry">
            <mxPoint x="270" y="610" as="sourcePoint" />
            <mxPoint x="320" y="560" as="targetPoint" />
            <Array as="points">
              <mxPoint x="530" y="450" />
            </Array>
          </mxGeometry>
        </mxCell>
        <mxCell id="18t634J7JC0i_9vnJ3S--106" value="&lt;span style=&quot;font-size: 15px;&quot;&gt;UC-05 Avaliar resumo do serviço&lt;/span&gt;" style="ellipse;whiteSpace=wrap;html=1;" vertex="1" parent="1">
          <mxGeometry x="460" y="604" width="140" height="80" as="geometry" />
        </mxCell>
        <mxCell id="18t634J7JC0i_9vnJ3S--109" value="&lt;span style=&quot;font-size: 15px;&quot;&gt;UC-06 Orçamento&lt;/span&gt;" style="ellipse;whiteSpace=wrap;html=1;" vertex="1" parent="1">
          <mxGeometry x="220" y="700" width="140" height="80" as="geometry" />
        </mxCell>
        <mxCell id="18t634J7JC0i_9vnJ3S--110" value="" style="endArrow=none;html=1;rounded=0;entryX=0.5;entryY=0.5;entryDx=0;entryDy=0;entryPerimeter=0;exitX=1;exitY=0.5;exitDx=0;exitDy=0;" edge="1" parent="1" source="18t634J7JC0i_9vnJ3S--106" target="18t634J7JC0i_9vnJ3S--85">
          <mxGeometry width="50" height="50" relative="1" as="geometry">
            <mxPoint x="530" y="750" as="sourcePoint" />
            <mxPoint x="580" y="700" as="targetPoint" />
          </mxGeometry>
        </mxCell>
        <mxCell id="18t634J7JC0i_9vnJ3S--111" value="" style="endArrow=none;html=1;rounded=0;exitX=0.5;exitY=0.5;exitDx=0;exitDy=0;exitPerimeter=0;entryX=0;entryY=0.5;entryDx=0;entryDy=0;" edge="1" parent="1" source="18t634J7JC0i_9vnJ3S--81" target="18t634J7JC0i_9vnJ3S--97">
          <mxGeometry width="50" height="50" relative="1" as="geometry">
            <mxPoint x="190" y="660" as="sourcePoint" />
            <mxPoint x="240" y="610" as="targetPoint" />
          </mxGeometry>
        </mxCell>
        <mxCell id="18t634J7JC0i_9vnJ3S--112" value="" style="endArrow=none;html=1;rounded=0;exitX=1;exitY=0.5;exitDx=0;exitDy=0;entryX=0.5;entryY=0.5;entryDx=0;entryDy=0;entryPerimeter=0;" edge="1" parent="1" source="18t634J7JC0i_9vnJ3S--109" target="18t634J7JC0i_9vnJ3S--85">
          <mxGeometry width="50" height="50" relative="1" as="geometry">
            <mxPoint x="540" y="750" as="sourcePoint" />
            <mxPoint x="695" y="660" as="targetPoint" />
            <Array as="points">
              <mxPoint x="550" y="740" />
            </Array>
          </mxGeometry>
        </mxCell>
        <mxCell id="18t634J7JC0i_9vnJ3S--113" value="" style="endArrow=none;dashed=1;html=1;dashPattern=1 3;strokeWidth=2;rounded=0;entryX=0.5;entryY=0;entryDx=0;entryDy=0;" edge="1" parent="1" target="18t634J7JC0i_9vnJ3S--106">
          <mxGeometry width="50" height="50" relative="1" as="geometry">
            <mxPoint x="363" y="570" as="sourcePoint" />
            <mxPoint x="413" y="520" as="targetPoint" />
            <Array as="points">
              <mxPoint x="530" y="570" />
            </Array>
          </mxGeometry>
        </mxCell>
        <mxCell id="18t634J7JC0i_9vnJ3S--114" value="" style="endArrow=none;dashed=1;html=1;dashPattern=1 3;strokeWidth=2;rounded=0;entryX=0;entryY=0.5;entryDx=0;entryDy=0;exitX=0.5;exitY=0;exitDx=0;exitDy=0;" edge="1" parent="1" source="18t634J7JC0i_9vnJ3S--109" target="18t634J7JC0i_9vnJ3S--106">
          <mxGeometry width="50" height="50" relative="1" as="geometry">
            <mxPoint x="290" y="690" as="sourcePoint" />
            <mxPoint x="340" y="640" as="targetPoint" />
            <Array as="points">
              <mxPoint x="290" y="644" />
            </Array>
          </mxGeometry>
        </mxCell>
        <mxCell id="18t634J7JC0i_9vnJ3S--115" value="&lt;span style=&quot;font-size: 15px;&quot;&gt;UC-07 Finalização&amp;nbsp;serviço&lt;/span&gt;" style="ellipse;whiteSpace=wrap;html=1;" vertex="1" parent="1">
          <mxGeometry x="460" y="790" width="140" height="80" as="geometry" />
        </mxCell>
        <mxCell id="18t634J7JC0i_9vnJ3S--116" value="&lt;span style=&quot;font-size: 15px;&quot;&gt;UC-08 Avaliação serviço prestado&lt;/span&gt;" style="ellipse;whiteSpace=wrap;html=1;" vertex="1" parent="1">
          <mxGeometry x="220" y="870" width="140" height="80" as="geometry" />
        </mxCell>
        <mxCell id="18t634J7JC0i_9vnJ3S--117" value="" style="endArrow=none;dashed=1;html=1;dashPattern=1 3;strokeWidth=2;rounded=0;entryX=0;entryY=0.5;entryDx=0;entryDy=0;exitX=0.5;exitY=0;exitDx=0;exitDy=0;" edge="1" parent="1" source="18t634J7JC0i_9vnJ3S--116" target="18t634J7JC0i_9vnJ3S--115">
          <mxGeometry width="50" height="50" relative="1" as="geometry">
            <mxPoint x="270" y="840" as="sourcePoint" />
            <mxPoint x="320" y="790" as="targetPoint" />
            <Array as="points">
              <mxPoint x="290" y="830" />
            </Array>
          </mxGeometry>
        </mxCell>
        <mxCell id="18t634J7JC0i_9vnJ3S--118" value="" style="endArrow=none;html=1;rounded=0;entryX=0.5;entryY=0.5;entryDx=0;entryDy=0;entryPerimeter=0;exitX=1;exitY=0.5;exitDx=0;exitDy=0;" edge="1" parent="1" source="18t634J7JC0i_9vnJ3S--115" target="18t634J7JC0i_9vnJ3S--85">
          <mxGeometry width="50" height="50" relative="1" as="geometry">
            <mxPoint x="690" y="790" as="sourcePoint" />
            <mxPoint x="740" y="740" as="targetPoint" />
          </mxGeometry>
        </mxCell>
        <mxCell id="18t634J7JC0i_9vnJ3S--120" value="" style="endArrow=none;html=1;rounded=0;entryX=0.5;entryY=0.5;entryDx=0;entryDy=0;entryPerimeter=0;exitX=0;exitY=0.5;exitDx=0;exitDy=0;" edge="1" parent="1" source="18t634J7JC0i_9vnJ3S--116" target="18t634J7JC0i_9vnJ3S--81">
          <mxGeometry width="50" height="50" relative="1" as="geometry">
            <mxPoint x="270" y="840" as="sourcePoint" />
            <mxPoint x="320" y="790" as="targetPoint" />
          </mxGeometry>
        </mxCell>
        <mxCell id="18t634J7JC0i_9vnJ3S--123" value="&amp;lt;" style="edgeLabel;html=1;align=center;verticalAlign=middle;resizable=0;points=[];fontSize=29;rotation=90;" connectable="0" vertex="1" parent="1">
          <mxGeometry x="444" y="315" as="geometry">
            <mxPoint x="94.00000000000001" y="-86" as="offset" />
          </mxGeometry>
        </mxCell>
        <mxCell id="18t634J7JC0i_9vnJ3S--124" value="&amp;lt;" style="edgeLabel;html=1;align=center;verticalAlign=middle;resizable=0;points=[];fontSize=29;rotation=270;" connectable="0" vertex="1" parent="1">
          <mxGeometry x="376" y="611" as="geometry">
            <mxPoint x="94.00000000000001" y="-86" as="offset" />
          </mxGeometry>
        </mxCell>
        <mxCell id="18t634J7JC0i_9vnJ3S--126" value="&amp;lt;" style="edgeLabel;html=1;align=center;verticalAlign=middle;resizable=0;points=[];fontSize=29;rotation=270;" connectable="0" vertex="1" parent="1">
          <mxGeometry x="617" y="692" as="geometry">
            <mxPoint x="94.00000000000001" y="-86" as="offset" />
          </mxGeometry>
        </mxCell>
        <mxCell id="18t634J7JC0i_9vnJ3S--127" value="&amp;lt;" style="edgeLabel;html=1;align=center;verticalAlign=middle;resizable=0;points=[];fontSize=29;rotation=270;" connectable="0" vertex="1" parent="1">
          <mxGeometry x="376" y="787" as="geometry">
            <mxPoint x="94.00000000000001" y="-86" as="offset" />
          </mxGeometry>
        </mxCell>
        <mxCell id="18t634J7JC0i_9vnJ3S--128" value="&amp;lt;" style="edgeLabel;html=1;align=center;verticalAlign=middle;resizable=0;points=[];fontSize=29;rotation=271;" connectable="0" vertex="1" parent="1">
          <mxGeometry x="374" y="957" as="geometry">
            <mxPoint x="94.00000000000001" y="-86" as="offset" />
          </mxGeometry>
        </mxCell>
        <mxCell id="18t634J7JC0i_9vnJ3S--131" value="Include" style="text;html=1;align=center;verticalAlign=middle;whiteSpace=wrap;rounded=0;fontSize=14;" vertex="1" parent="1">
          <mxGeometry x="420" y="420" width="60" height="30" as="geometry" />
        </mxCell>
        <mxCell id="18t634J7JC0i_9vnJ3S--137" value="Extend" style="edgeLabel;html=1;align=center;verticalAlign=middle;resizable=0;points=[];fontSize=14;" connectable="0" vertex="1" parent="1">
          <mxGeometry x="319.9970588235293" y="500" as="geometry" />
        </mxCell>
        <mxCell id="18t634J7JC0i_9vnJ3S--138" value="Extend" style="edgeLabel;html=1;align=center;verticalAlign=middle;resizable=0;points=[];fontSize=14;" connectable="0" vertex="1" parent="1">
          <mxGeometry x="469.9970588235293" y="554" as="geometry" />
        </mxCell>
        <mxCell id="18t634J7JC0i_9vnJ3S--139" value="Extend" style="edgeLabel;html=1;align=center;verticalAlign=middle;resizable=0;points=[];fontSize=14;" connectable="0" vertex="1" parent="1">
          <mxGeometry x="339.9970588235293" y="630" as="geometry" />
        </mxCell>
        <mxCell id="18t634J7JC0i_9vnJ3S--140" value="Extend" style="edgeLabel;html=1;align=center;verticalAlign=middle;resizable=0;points=[];fontSize=14;" connectable="0" vertex="1" parent="1">
          <mxGeometry x="339.9970588235293" y="816" as="geometry" />
        </mxCell>
        <mxCell id="18t634J7JC0i_9vnJ3S--141" value="" style="endArrow=none;html=1;rounded=0;entryX=0.5;entryY=0.5;entryDx=0;entryDy=0;entryPerimeter=0;exitX=1;exitY=0;exitDx=0;exitDy=0;" edge="1" parent="1" source="18t634J7JC0i_9vnJ3S--87" target="18t634J7JC0i_9vnJ3S--85">
          <mxGeometry width="50" height="50" relative="1" as="geometry">
            <mxPoint x="410" y="260" as="sourcePoint" />
            <mxPoint x="460" y="210" as="targetPoint" />
            <Array as="points">
              <mxPoint x="620" y="260" />
            </Array>
          </mxGeometry>
        </mxCell>
        <mxCell id="18t634J7JC0i_9vnJ3S--142" value="" style="endArrow=none;html=1;rounded=0;entryX=1;entryY=0.5;entryDx=0;entryDy=0;exitX=0.5;exitY=0.5;exitDx=0;exitDy=0;exitPerimeter=0;" edge="1" parent="1" source="18t634J7JC0i_9vnJ3S--85" target="18t634J7JC0i_9vnJ3S--88">
          <mxGeometry width="50" height="50" relative="1" as="geometry">
            <mxPoint x="600" y="460" as="sourcePoint" />
            <mxPoint x="650" y="410" as="targetPoint" />
          </mxGeometry>
        </mxCell>
      </root>
    </mxGraphModel>
  </diagram>
</mxfile>
